<?xml version="1.0" encoding="utf-8"?>
<!-- Generator: Adobe Illustrator 22.1.0, SVG Export Plug-In . SVG Version: 6.00 Build 0)  -->
<svg version="1.0" id="图层_1" xmlns="http://www.w3.org/2000/svg" xmlns:xlink="http://www.w3.org/1999/xlink" x="0px" y="0px"
	 viewBox="0 0 90.7 90.7" style="enable-background:new 0 0 90.7 90.7;" xml:space="preserve">
<style type="text/css">
	.st0{fill:#FFFFFF;}
	.st1{fill-rule:evenodd;clip-rule:evenodd;fill:#FFFFFF;}
</style>
<path class="st0" d="M10.8,61.5l-1.5-3.5l0.2-0.1c0.1,0.4,0.4,0.6,0.7,0.4l2.9-1.2c0.3-0.1,0.4-0.4,0.2-0.8l0.2-0.1l0.9,2.2
	l-0.2,0.1c-0.2-0.4-0.4-0.6-0.7-0.4l-2.9,1.2c-0.3,0.1-0.4,0.3-0.2,0.6c0.3,0.6,0.9,0.8,1.9,0.7l0.1,0.3L10.8,61.5L10.8,61.5z"/>
<path class="st0" d="M14.2,63.8l0.9-1.2l-1.5,0.2L14.2,63.8L14.2,63.8z M12.1,64l-0.9-1.6l0.2-0.1c0.2,0.3,0.6,0.4,1.2,0.3l3.8-0.5
	l0.2,0.3L14,65.9c-0.2,0.2-0.2,0.5-0.1,0.8l-0.2,0.1l-1.2-2.1l0.2-0.1l0.1,0.2c0.1,0.2,0.3,0.3,0.4,0.2c0,0,0.1-0.1,0.1-0.1
	c0,0,0.1,0,0.1,0l0.5-0.7l-0.7-1.3L12.7,63c-0.1,0-0.2,0-0.4,0.1c-0.2,0.1-0.2,0.3-0.1,0.5l0.2,0.3L12.1,64L12.1,64z"/>
<path class="st0" d="M17.6,64.7l0.2-0.2l1,1.3l-1,3.7l0,0l1.8-1.5c0.3-0.2,0.2-0.5,0-0.9l0.2-0.2l1.1,1.3l-0.2,0.2
	c-0.3-0.3-0.6-0.3-0.8-0.1l-3,2.4l-0.4-0.5l1.1-4.2l0,0l-2.2,1.8c-0.3,0.2-0.2,0.5,0.2,0.9l-0.2,0.2l-1.1-1.4l0.2-0.2
	c0.3,0.4,0.5,0.4,0.8,0.2l2.5-2C17.9,65.3,17.9,65,17.6,64.7L17.6,64.7z"/>
<path class="st0" d="M21.9,73.1l-1.2,1.3l-2.6-2.4l0.2-0.3l4.4-1.3l-0.3-0.3c-0.7-0.6-1.4-0.7-2-0.1l-0.2-0.2l1.1-1.1l2.5,2.3
	l-0.3,0.3l-4.3,1.2c0.9,0.9,1.7,1,2.5,0.3L21.9,73.1L21.9,73.1z"/>
<path class="st0" d="M24.5,74.1l1.2,0.8l0.8-1.1c0.2-0.2,0.1-0.5-0.2-0.7l0.1-0.2l1.9,1.3l-0.1,0.2c-0.4-0.3-0.6-0.3-0.8,0l-1.8,2.6
	c-0.2,0.3-0.1,0.5,0.3,0.7l-0.1,0.2l-1.9-1.3l0.1-0.2c0.3,0.3,0.6,0.2,0.7,0l0.9-1.3l-1.2-0.8l-0.9,1.3c-0.2,0.3-0.1,0.5,0.2,0.7
	l-0.1,0.2l-1.9-1.3l0.1-0.2c0.3,0.3,0.6,0.3,0.8,0l1.8-2.6c0.2-0.2,0.1-0.5-0.3-0.7l0.1-0.2l1.9,1.3L26,73c-0.3-0.3-0.6-0.2-0.7,0
	L24.5,74.1L24.5,74.1z"/>
<path class="st0" d="M28.9,77.1c-0.6,1.3-0.6,2,0.1,2.3c0.6,0.3,1.3-0.1,1.9-1.4c0.6-1.2,0.6-2-0.1-2.3
	C30.1,75.4,29.5,75.8,28.9,77.1L28.9,77.1z M27.8,76.6c0.7-1.2,1.8-1.6,3.1-1.1c1.2,0.7,1.5,1.8,1.1,3.1c-0.8,1.2-1.8,1.6-3.1,1.1
	C27.7,78.9,27.3,77.9,27.8,76.6L27.8,76.6z"/>
<path class="st0" d="M33.4,76.6l2.3,0.7l-0.1,0.3c-0.5-0.2-0.7-0.1-0.8,0.2L34,80.4c-0.1,0.5,0.1,0.9,0.6,1.1c0.7,0.2,1.2,0,1.4-0.8
	l0.7-2.3c0.1-0.3-0.1-0.5-0.5-0.7l0.1-0.3l1.6,0.5l-0.1,0.3c-0.5-0.1-0.7,0-0.8,0.3l-0.7,2.3c-0.3,0.9-1,1.2-2.1,0.9
	c-1.1-0.3-1.5-0.9-1.3-1.7l0.8-2.5c0.1-0.3,0-0.5-0.5-0.6L33.4,76.6L33.4,76.6z"/>
<path class="st0" d="M42.9,78.7l2.4,0l0,0.3c-0.5,0-0.7,0.1-0.7,0.4l0,2.7c0,0.6,0.3,0.9,0.9,0.9c0.7,0,1.1-0.4,1.2-1.1l0-2.4
	c0-0.3-0.2-0.5-0.7-0.5l0-0.3l1.7,0l0,0.3c-0.5,0.1-0.7,0.2-0.6,0.5l0,2.4c0,1-0.6,1.5-1.8,1.5c-1.1,0-1.7-0.5-1.7-1.3l0-2.6
	c0-0.3-0.2-0.5-0.6-0.4L42.9,78.7L42.9,78.7z"/>
<path class="st0" d="M47.9,79l0-0.3l1.6-0.2l2.7,2.8l0,0L51.8,79c0-0.3-0.3-0.4-0.8-0.4l0-0.3l1.7-0.2l0,0.3
	c-0.4,0.1-0.6,0.3-0.5,0.6l0.6,3.8l-0.6,0.1l-3-3.1l0,0l0.4,2.8c0,0.3,0.3,0.4,0.8,0.3l0,0.3l-1.8,0.3l0-0.3c0.5,0,0.6-0.2,0.6-0.5
	l-0.5-3.2C48.6,79,48.4,78.9,47.9,79L47.9,79z"/>
<path class="st0" d="M56.7,81.7l-2.3,0.6L54.3,82c0.4-0.1,0.6-0.3,0.5-0.6L54,78.4c-0.1-0.3-0.3-0.4-0.7-0.3l-0.1-0.3l2.3-0.6
	l0.1,0.3c-0.5,0.1-0.6,0.3-0.5,0.6l0.8,3.1c0.1,0.3,0.3,0.4,0.7,0.3L56.7,81.7L56.7,81.7z"/>
<path class="st0" d="M56.1,77.4L56,77.1l2.1-0.8l0.1,0.2c-0.4,0.2-0.6,0.3-0.5,0.5c-0.1,0,0.5,0.7,1.8,2.3l0,0c0-0.1,0-0.2,0-0.4
	c-0.1-1.8-0.1-2.6-0.1-2.4c-0.1-0.2-0.3-0.3-0.6-0.1L58.7,76l1.4-0.6l0.1,0.2c-0.3,0.2-0.4,0.4-0.4,0.6l0.1,4.2l-0.5,0.2l-2.6-3.1
	C56.6,77.3,56.3,77.2,56.1,77.4L56.1,77.4z"/>
<path class="st0" d="M63.7,73.3l0.9,1.4l-0.2,0.1c-0.6-0.6-1.3-0.8-2-0.4c-0.4,0.2-0.4,0.4-0.3,0.6l0.7,1.1c0.5-0.2,0.7-0.6,0.5-1.2
	l0.2-0.1l0.9,1.6l-0.2,0.1c-0.4-0.4-0.8-0.5-1.3-0.2l0.8,1.3c0.1,0.3,0.4,0.3,0.7,0.1c0.7-0.4,1-1.1,0.7-2.1l0.2-0.1l0.8,1.5
	l-3.7,2.1l-0.1-0.2c0.4-0.2,0.5-0.4,0.3-0.7l-1.6-2.8c-0.1-0.3-0.4-0.3-0.8-0.1l-0.1-0.2L63.7,73.3L63.7,73.3z"/>
<path class="st0" d="M66.2,72.4l0.9,1.1c0.7-0.5,0.8-1,0.4-1.4c-0.4-0.4-0.8-0.5-1.1-0.3C66.1,72,66,72.2,66.2,72.4L66.2,72.4z
	 M70,73.1l0.2-0.2c0.4,0.5,0.4,1-0.1,1.4c-0.5,0.4-1,0.3-1.5-0.2c-0.3-0.3-0.5-0.5-0.7-0.6c-0.2-0.1-0.4,0-0.7,0.2l0.9,1.1
	c0.2,0.3,0.5,0.4,0.9,0l0.2,0.2l-1.9,1.5l-0.2-0.2c0.4-0.3,0.5-0.5,0.2-0.8l-2-2.5c-0.2-0.3-0.4-0.2-0.8,0.1l-0.2-0.2l1.8-1.5
	c0.9-0.7,1.6-0.7,2.1-0.1c0.4,0.6,0.2,1.2-0.6,1.9l0,0c0.5-0.3,1-0.3,1.5,0c0.5,0.4,0.7,0.5,0.8,0.3C70.2,73.6,70.2,73.4,70,73.1
	L70,73.1z"/>
<path class="st0" d="M71.7,72.9l-1.3-1.2l0.2-0.2c0.9,0.5,1.6,0.5,2.1,0c0.4-0.4,0.4-0.8,0.1-1.1c-0.2-0.2-0.6-0.1-1.3,0.2
	c-0.9,0.5-1.6,0.5-2,0.1c-0.7-0.7-0.7-1.4,0-2.2c0.2-0.2,0.5-0.4,0.8-0.5c0.1,0,0.2-0.1,0.2-0.1c0.1,0,0.1-0.2,0-0.4l0.2-0.2
	l1.2,1.1l-0.2,0.2c-0.8-0.4-1.4-0.4-1.9,0c-0.3,0.4-0.3,0.7-0.1,1c0.2,0.2,0.7,0.2,1.3-0.2c1-0.5,1.7-0.6,2.1-0.1
	c0.6,0.7,0.6,1.4-0.1,2.2c-0.3,0.3-0.6,0.5-0.9,0.7c-0.1,0-0.2,0.1-0.2,0.1c-0.1,0.1-0.1,0.2,0,0.4L71.7,72.9L71.7,72.9z"/>
<path class="st0" d="M76.5,67.4L75,69.3l-0.2-0.2c0.3-0.3,0.3-0.6,0-0.8l-2.5-1.9c-0.2-0.2-0.5-0.1-0.8,0.2l-0.2-0.2l1.5-1.9
	l0.2,0.2c-0.3,0.4-0.3,0.6,0,0.8l2.5,1.9c0.2,0.2,0.5,0.1,0.8-0.3L76.5,67.4L76.5,67.4z"/>
<path class="st0" d="M73.2,64.1l2.2-3.7l1.4,0.8l-0.2,0.3c-0.9-0.3-1.5-0.1-1.8,0.5l3.1,1.8c0.3,0.2,0.5,0.1,0.8-0.4l0.2,0.1
	l-1.3,2.2l-0.2-0.1c0.3-0.4,0.3-0.7,0-0.9l-3.1-1.8c-0.3,0.6-0.2,1.2,0.5,1.8l-0.2,0.3L73.2,64.1L73.2,64.1z"/>
<path class="st0" d="M75.8,60.2l-0.2-0.1l0.9-2l0.2,0.1c-0.1,0.3-0.1,0.5,0,0.6c0,0,0.1,0,0.3,0c0,0,0.1,0,0.1,0l1.5-0.1l-0.9-1.1
	c-0.1-0.1-0.2-0.2-0.3-0.2c-0.2-0.1-0.3,0.1-0.5,0.4l-0.2-0.1l0.7-1.6l0.2,0.1c-0.1,0.4-0.1,0.7,0.2,0.9l1.4,1.7l1.1,0.5
	c0.3,0.2,0.5,0,0.7-0.5l0.2,0.1l-1,2.4L79.9,61c0.2-0.5,0.2-0.8-0.1-0.9l-1.1-0.5l-1.9,0.1C76.2,59.8,75.9,59.9,75.8,60.2L75.8,60.2
	z"/>
<path class="st1" d="M10,46.6c0.7,0,1.3-0.5,1.3-1.2c0-0.7-0.6-1.3-1.3-1.3c-0.7,0-1.3,0.6-1.3,1.3C8.6,46.1,9.3,46.6,10,46.6
	L10,46.6z"/>
<path class="st1" d="M80.7,46.6c0.7,0,1.2-0.5,1.2-1.2c0-0.7-0.5-1.3-1.2-1.3c-0.7,0-1.3,0.6-1.3,1.3C79.3,46.1,80,46.6,80.7,46.6
	L80.7,46.6z"/>
<path class="st1" d="M45.4,2c24,0,43.4,19.4,43.4,43.4c0,24-19.4,43.4-43.4,43.4S2,69.3,2,45.4C2,21.4,21.4,2,45.4,2L45.4,2z
	 M45.4,3.1c23.3,0,42.2,18.9,42.2,42.2c0,23.3-18.9,42.2-42.2,42.2S3.1,68.7,3.1,45.4C3.1,22,22,3.1,45.4,3.1L45.4,3.1z"/>
<path class="st1" d="M45.4,15.8c16.3,0,29.6,13.2,29.6,29.6c0,16.3-13.2,29.6-29.6,29.6c-16.3,0-29.6-13.2-29.6-29.6
	C15.8,29,29,15.8,45.4,15.8L45.4,15.8z M45.4,16.6c15.9,0,28.7,12.9,28.7,28.7c0,15.9-12.9,28.7-28.7,28.7
	c-15.9,0-28.7-12.9-28.7-28.7C16.6,29.5,29.5,16.6,45.4,16.6L45.4,16.6z"/>
<path class="st1" d="M70.1,43h-2.3v2.4h2.3V43L70.1,43z M45,25.1h0.2v-0.6h0.1h0.1v0.6h0.2v0.6h-0.2v1.2l0.2,0.5V29l0.5,0.6v2.7h0.7
	v5h0.7v-0.6h0.8v2.9h10.8v-1.7h0.6v0.5h2l0-0.5h0.6v1.7h8.5v11.4H19.9V39.5h8.5v-1.7H29l0,0.5h2v-0.5h0.6v1.7h10.8v-2.9h0.8v0.6h0.7
	v-5h0.7v-2.7l0.5-0.6v-1.6l0.2-0.5v-1.2H45V25.1L45,25.1z M70.1,45.6h-3.1v1.9h3.1V45.6L70.1,45.6z M70.1,47.7h-3.6v1.6h1.2v-1.2
	h0.6v1.2h0.5v0.9h1.2V47.7L70.1,47.7z M61.8,43h2.7v2.4h-2.7V43L61.8,43z M61.8,45.6h3.6v1.9h-3.6V45.6L61.8,45.6z M61.8,47.7h4.1
	v1.6h-1.4v-1.2h-0.7v1.2h-0.4v0.9h-1.6V47.7L61.8,47.7z M61.8,40.8h2.7v2.1h-2.7V40.8L61.8,40.8z M67.2,40.8H65v4.4h0.7V47h1v-1.9
	h0.6V40.8L67.2,40.8z M61.7,38.9h-2v0.6h2V38.9L61.7,38.9z M61.2,40.4h-1.6v9.8h1.6V40.4L61.2,40.4z M48.1,42.6h-0.7v1.2h0.7V42.6
	L48.1,42.6z M59,42.6h-0.7V44h-0.8v-1.4h-0.7V44c-0.3,0-0.5,0-0.8,0v-1.4h-0.7V44c-0.3,0-0.5,0-0.8,0v-1.4h-0.7V44
	c-0.3,0-0.5,0-0.8,0v-1.4H52V44c-0.3,0-0.5,0-0.8,0v-1.4h-0.7V44c-0.3,0-0.5,0-0.8,0v-1.4h-0.7v1.2h0.2v0.6H59V42.6L59,42.6z
	 M57.7,44.7h-1.2v2.1h1.2V44.7L57.7,44.7z M56.3,44.7h-1.2v2.1h1.2V44.7L56.3,44.7z M54.9,44.7h-1.2v2.1h1.2V44.7L54.9,44.7z
	 M59,44.7h-1v2.1h1V44.7L59,44.7z M59,47h-9v3.2h3.4v-2.7h0.6v2.7h0.8v-2.7h0.6v2.7h0.8v-2.7h0.6v2.7h0.8v-2.7h0.6v2.7H59V47L59,47z
	 M70.1,40.8h-2.3v2.1h2.3V40.8L70.1,40.8z M45.8,43.8v-1.2h0.8v1.2H45.8L45.8,43.8z M20.6,43h2.3v2.4h-2.3V43L20.6,43z M20.6,45.6
	h3.1v1.9h-3.1V45.6L20.6,45.6z M20.6,47.7h3.6v1.6h-1.2v-1.2h-0.6v1.2h-0.5v0.9h-1.2V47.7L20.6,47.7z M29,43h-2.7v2.4H29V43L29,43z
	 M29,45.6h-3.6v1.9H29V45.6L29,45.6z M29,47.7h-4.1v1.6h1.4v-1.2H27v1.2h0.4v0.9H29V47.7L29,47.7z M29,40.8h-2.7v2.1H29V40.8
	L29,40.8z M23.5,40.8h2.2v4.4H25V47h-1v-1.9h-0.6V40.8L23.5,40.8z M29,38.9h2v0.6h-2V38.9L29,38.9z M29.6,40.4h1.6v9.8h-1.6V40.4
	L29.6,40.4z M42.6,42.6h0.7v1.2h-0.7V42.6L42.6,42.6z M31.8,42.6h0.7V44h0.8v-1.4H34V44c0.3,0,0.5,0,0.8,0v-1.4h0.7V44
	c0.3,0,0.5,0,0.8,0v-1.4h0.7V44c0.3,0,0.5,0,0.8,0v-1.4h0.7V44c0.3,0,0.5,0,0.8,0v-1.4h0.7V44c0.3,0,0.5,0,0.8,0v-1.4h0.7v1.2h-0.2
	v0.6h-9.8V42.6L31.8,42.6z M33,44.7h1.2v2.1H33V44.7L33,44.7z M34.4,44.7h1.2v2.1h-1.2V44.7L34.4,44.7z M35.8,44.7H37v2.1h-1.2V44.7
	L35.8,44.7z M31.8,44.7h1v2.1h-1V44.7L31.8,44.7z M31.8,47h9v3.2h-3.4v-2.7h-0.6v2.7H36v-2.7h-0.6v2.7h-0.8v-2.7H34v2.7h-0.8v-2.7
	h-0.6v2.7h-0.8V47L31.8,47z M20.6,40.8h2.3v2.1h-2.3V40.8L20.6,40.8z M45,43.8v-1.2h-0.8v1.2H45L45,43.8z M45.8,32.3V30l-0.5-0.3
	L44.9,30v2.3H45.8L45.8,32.3z M46.2,37.3V33h-1.8v4.3H46.2L46.2,37.3z M47.6,39.5V38h-4.5v1.5H47.6L47.6,39.5z M45.4,40.6
	c0.2,0,0.4,0.2,0.4,0.4v0.1h0.8V41c0-0.2,0.2-0.4,0.4-0.4l0,0c0.2,0,0.4,0.2,0.4,0.4v0.1h0.8V41c0-0.2,0.2-0.4,0.4-0.4l0,0
	c0.2,0,0.4,0.2,0.4,0.4v0.1h0.8V41c0-0.2,0.2-0.4,0.4-0.4l0,0c0.2,0,0.4,0.2,0.4,0.4v0.1h0.8V41c0-0.2,0.2-0.4,0.4-0.4l0,0
	c0.2,0,0.4,0.2,0.4,0.4v0.1h0.8V41c0-0.2,0.2-0.4,0.4-0.4l0,0c0.2,0,0.4,0.2,0.4,0.4v0.1h0.8V41c0-0.2,0.2-0.4,0.4-0.4l0,0
	c0.2,0,0.4,0.2,0.4,0.4v0.1h0.8V41c0-0.2,0.2-0.4,0.4-0.4l0,0c0.2,0,0.4,0.2,0.4,0.4v0.1h0.8V41c0-0.2,0.2-0.4,0.4-0.4l0,0
	c0.2,0,0.4,0.2,0.4,0.4v0.1H59v-1H31.8v1h0.7V41c0-0.2,0.2-0.4,0.4-0.4l0,0c0.2,0,0.4,0.2,0.4,0.4v0.1H34V41c0-0.2,0.2-0.4,0.4-0.4
	l0,0c0.2,0,0.4,0.2,0.4,0.4v0.1h0.8V41c0-0.2,0.2-0.4,0.4-0.4l0,0c0.2,0,0.4,0.2,0.4,0.4v0.1h0.8V41c0-0.2,0.2-0.4,0.4-0.4l0,0
	c0.2,0,0.4,0.2,0.4,0.4v0.1h0.8V41c0-0.2,0.2-0.4,0.4-0.4l0,0c0.2,0,0.4,0.2,0.4,0.4v0.1h0.8V41c0-0.2,0.2-0.4,0.4-0.4l0,0
	c0.2,0,0.4,0.2,0.4,0.4v0.1h0.8V41c0-0.2,0.2-0.4,0.4-0.4l0,0c0.2,0,0.4,0.2,0.4,0.4v0.1h0.8V41c0-0.2,0.2-0.4,0.4-0.4l0,0
	c0.2,0,0.4,0.2,0.4,0.4v0.1H45V41C45,40.8,45.1,40.6,45.4,40.6L45.4,40.6L45.4,40.6L45.4,40.6z M59,42.4v-1.1h-0.7v0.8h-0.8v-0.8
	h-0.8v0.8c-0.3,0-0.5,0-0.8,0v-0.8h-0.8v0.8c-0.3,0-0.5,0-0.8,0v-0.8h-0.8v0.8c-0.3,0-0.5,0-0.8,0v-0.8H52v0.8c-0.3,0-0.5,0-0.8,0
	v-0.8h-0.8v0.8c-0.3,0-0.5,0-0.8,0v-0.8h-0.8v0.8c-0.3,0-0.5,0-0.8,0v-0.8h-0.8v0.8c-0.3,0-0.5,0-0.8,0v-0.8h-0.8v0.8H45v-0.8h-0.8
	v0.8c-0.3,0-0.5,0-0.8,0v-0.8h-0.8v0.8c-0.3,0-0.5,0-0.8,0v-0.8h-0.8v0.8c-0.3,0-0.5,0-0.8,0v-0.8h-0.8v0.8c-0.3,0-0.5,0-0.8,0v-0.8
	h-0.8v0.8c-0.3,0-0.5,0-0.8,0v-0.8h-0.8v0.8c-0.3,0-0.5,0-0.8,0v-0.8h-0.8v0.8c-0.3,0-0.5,0-0.8,0v-0.8h-0.8v0.8h-0.8v-0.8h-0.7v1.1
	H59L59,42.4z M48,44.5l1.9,1.4v0.9h3.6v-2.1h-4.6V44h-7.1v0.6h-4.6v2.1h3.6v-0.9l1.9-1.4H48L48,44.5z M46.2,45.7
	c0.7,0,1.3,0.6,1.3,1.4v3.1h0.7v-4.3l-0.6-0.6H43l-0.6,0.6v4.3h0.7v-3.1c0-0.8,0.6-1.4,1.3-1.4H46.2L46.2,45.7z M46.5,47.1v3.1H47
	v-3.3c0-0.4-0.4-0.8-0.8-0.8h-1.7c-0.4,0-0.8,0.4-0.8,0.8v3.3h0.5v-3.1H46.5L46.5,47.1z M46.1,50.2V48c0-0.1-0.1-0.1-0.3-0.1h-1
	c-0.1,0-0.3,0.1-0.3,0.1v2.2H46.1L46.1,50.2z M41.8,52.4h7.1V53h-7.1V52.4L41.8,52.4z M40.7,53.3H50v0.6h-9.4V53.3L40.7,53.3z
	 M43.1,51.4h4.5V52h-4.5V51.4L43.1,51.4z"/>
<path class="st0" d="M37.5,61.8v-1c0.4-0.2,0.9-0.4,1.3-0.7h1v4.8h-1.1v-3.8C38.3,61.4,37.9,61.6,37.5,61.8L37.5,61.8z M41.2,63.7
	h1.1c0.1,0.4,0.2,0.6,0.5,0.6c0.6,0,0.8-0.5,0.8-1.5c-0.1,0.1-0.3,0.2-0.4,0.2c-0.1,0-0.3,0.1-0.6,0.1c-0.9-0.1-1.4-0.6-1.5-1.5
	c0.1-1,0.7-1.6,1.8-1.6c1.2,0,1.8,0.7,1.8,2.2c0.1,2-0.6,2.9-1.9,2.9C41.8,65,41.2,64.6,41.2,63.7L41.2,63.7z M42.3,61.6
	c0,0.5,0.2,0.8,0.7,0.8c0.4,0,0.6-0.3,0.7-0.8c0-0.6-0.2-0.9-0.7-0.9C42.5,60.7,42.3,61,42.3,61.6L42.3,61.6z M47.9,62.5
	c0-1.2-0.2-1.8-0.7-1.8c-0.4,0-0.7,0.6-0.7,1.8c0,1.2,0.2,1.8,0.7,1.8C47.7,64.3,47.9,63.7,47.9,62.5L47.9,62.5z M49,62.5
	c0,1.7-0.6,2.5-1.8,2.5c-1.1,0-1.7-0.9-1.8-2.5c0-1.7,0.6-2.5,1.8-2.5C48.4,60,49,60.9,49,62.5L49,62.5z M49.6,63.7h1.1
	c0.1,0.4,0.2,0.6,0.5,0.6c0.6,0,0.8-0.5,0.8-1.5c-0.1,0.1-0.3,0.2-0.4,0.2c-0.1,0-0.3,0.1-0.6,0.1c-0.9-0.1-1.4-0.6-1.5-1.5
	c0.1-1,0.7-1.6,1.8-1.6c1.2,0,1.8,0.7,1.8,2.2c0.1,2-0.6,2.9-1.9,2.9C50.2,65,49.7,64.6,49.6,63.7L49.6,63.7z M50.7,61.6
	c0,0.5,0.2,0.8,0.7,0.8c0.4,0,0.6-0.3,0.7-0.8c0-0.6-0.2-0.9-0.7-0.9C51,60.7,50.7,61,50.7,61.6L50.7,61.6z"/>
<path class="st1" d="M29.8,12.7c0,0,0.1-0.1,0.2-0.1c0,0,0.1-0.1,0.1-0.1c0.1,0,0.1,0,0.3,0c0.2,0.1,0.3,0.1,0.4,0.1
	c0.1,0,0.2-0.1,0.2-0.1c0,0,0-0.1,0-0.2c0-0.1,0.1-0.2,0.1-0.3c0-0.1,0-0.2,0-0.2c0,0,0.1-0.3,0.2-0.3c0.1,0,0.4-0.2,0.8-0.3
	c0,0,0.1,0,0.2,0.1c0,0.1,0.1,0.4,0.2,0.4c0,0,0,0.1,0.1,0.1c0.1,0,0.2,0,0.3-0.2c0.1-0.2,0.2-0.4,0.2-0.5c0-0.1,0.1-0.3,0.1-0.4
	c0-0.1,0-0.3,0.1-0.4c0.1-0.1,0.1-0.2,0.3-0.2s0.3-0.1,0.4-0.1c0.1,0,0.2,0,0.2,0s0.1,0,0.1,0.1c0,0.1,0.1,0.2,0.1,0.2
	c0,0,0.2,0.2,0.5,0.1c0,0,0.1,0,0.1-0.1c0,0,0.1-0.1,0.1-0.3c0-0.2,0-0.3,0.1-0.4c0-0.1,0.1-0.4,0.1-0.6C35.1,9,35.2,9,35.2,8.9
	c0-0.1,0.2-0.3,0.3-0.3c0.3-0.1,0.5,0,0.8,0c0.1,0,0.2,0.1,0.3,0.1c0,0,0.1,0.1,0,0.1c0,0,0,0.4-0.1,0.7c0,0,0,0.1,0,0.2
	c0,0.1,0.1,0.2,0.1,0.2c0,0.1,0,0.2,0.1,0.3c0,0,0,0.1,0,0.1c0,0.1,0.1,0.2,0.1,0.3c0.1,0.1,0.1,0.2,0.2,0.3c0,0,0.1,0.1,0.1,0.1
	c0,0.1,0.1,0.1,0.1,0.2c0,0,0,0.1,0,0.1c0,0.1,0,0.1,0,0.2c0,0.1,0,0.1,0.1,0.2c0,0,0.1,0,0.2,0.1c0.2,0.1,0.4,0.6,0.4,0.7
	c0,0.1-0.2,0.3-0.2,0.4c0,0.1-0.2,0.5-0.3,0.6c-0.1,0.1-0.3,0.1-0.4,0.1c-0.1,0-0.2-0.2-0.2-0.2l-0.2-0.1l-0.2,0.1c0,0,0-0.1,0-0.2
	c0-0.1,0-0.2,0-0.4c0-0.2-0.1-0.6-0.3-0.8c0,0,0-0.3-0.1-0.5c-0.1-0.2-0.2-0.5-0.3-0.7c0-0.2,0-0.4,0-0.4c0-0.1,0-0.4-0.1-0.5
	c-0.1-0.2-0.2-0.2-0.2-0.2c-0.1,0-0.1,0.1-0.1,0.2c0,0.1-0.2,0.4-0.1,0.7c0,0,0,0.2,0.1,0.2c0.1,0,0.2,0.1,0.2,0.1
	c0,0.1,0.1,0.3,0.1,0.3s0,0.3-0.1,0.3c-0.1,0.1-0.2,0.1-0.3,0c-0.1,0-0.2,0-0.3,0c-0.1-0.1-0.2-0.1-0.2-0.3c0-0.2,0-0.2-0.1-0.3
	c0-0.1-0.1-0.2-0.1-0.3c0,0-0.1,0-0.1,0s0,0.3,0,0.3c0,0.1,0,0.3,0,0.5c0,0.2,0,0.3,0,0.4c0,0.1,0.2,0.4,0.2,0.5
	c0,0.1,0.3,0.6,0.3,0.8c0,0.2-0.1,0.4-0.1,0.5c-0.1,0.1-0.4,0.2-0.4,0.2s-0.2-0.1-0.3-0.3c-0.1-0.2-0.2-0.4-0.3-0.6
	c0-0.1-0.1-0.4-0.1-0.6c0-0.1,0-0.4,0-0.6c0-0.1,0-0.3,0-0.4c0-0.1,0-0.3-0.1-0.3c0,0-0.1,0.1-0.1,0.3c0,0.2-0.1,0.4-0.1,0.5
	c0,0.1-0.1,0.3-0.3,0.3c0,0-0.2,0-0.2,0.1c-0.1,0.1,0,0.2,0,0.3c0,0.1,0.3,0.8,0.3,1.1c0,0.2-0.2,1-0.3,1.2c0,0-0.2,0.2-0.4,0.3
	s-0.3,0-0.3,0s-0.4-0.1-0.4-0.2c-0.1,0-0.1-0.2-0.2-0.3c-0.1-0.1-0.1-0.2,0-0.2c0.1-0.1,0.3-0.3,0.3-0.3s0.3-0.6,0.3-1
	c0-0.3,0-0.8-0.1-1c-0.1-0.2-0.2-0.4-0.4-0.4c-0.1,0-0.2,0-0.2,0.1c0,0-0.1,0.1-0.1,0.1c0,0,0,0,0,0c0,0.1-0.1,0.2-0.1,0.2
	s0,0.2,0,0.2c0,0.1,0.1,0.3,0.1,0.4c0.1,0.1,0.1,0.2,0.1,0.3c0,0-0.1,0.1-0.1,0.1c-0.2,0.3-0.2,0.6-0.6,0.4C30.5,14,30.4,14,30.4,14
	s-0.1,0-0.2-0.3c-0.3-0.4,0-0.3,0-0.5c0-0.1,0-0.2,0-0.3c0,0-0.1-0.1-0.1-0.1C29.9,12.8,29.8,12.7,29.8,12.7L29.8,12.7z"/>
<path class="st1" d="M70.6,25.4c0.1,0,0.4,0,0.6,0c0.2,0,0.5,0.1,0.7,0.3c0,0-0.1,0.3-0.2,0.4c0,0.1-0.1,0.3-0.4,0.5
	C71,26.9,71,26.8,71,26.8s-0.1,0-0.5-0.2c-0.3-0.2-0.5-0.3-0.6-0.5c-0.2-0.1-0.3-0.3-0.3-0.3c0,0.2,0,0.2,0.1,0.4
	c0,0.1,0.3,0.5,0.4,0.6c0.1,0.1,0.1,0.2,0.1,0.4c0,0.1,0,0.5,0.1,0.7c0,0,0.3,0.3,0.4,0.3c0.1,0,0.4,0,0.4,0s0.6,0,0.9-0.3
	c0.3-0.3,0.3-0.4,0.4-0.7c0.1-0.3,0.3-0.6,0.5-0.7c0,0,0.3,0.1,0.4,0c0.1,0,0.3,0,0.3,0c0,0,0.1-0.1,0.1-0.2c0-0.1,0-0.1,0-0.2
	c0-0.1,0.1-0.2,0.2-0.4c0,0-0.1-0.2-0.2-0.3c-0.1-0.1-0.2-0.2-0.5-0.3c-0.3-0.1-0.6-0.3-1-0.4c-0.5-0.2-1-0.4-1.3-0.5
	c0,0-0.3-0.1-0.5-0.2c-0.2-0.2-0.3-0.5-0.6-0.4c-0.1,0-0.1,0.1-0.1,0.1s0,0.3,0,0.5c0.1,0.4-0.1,0.8,0.3,1
	C70.3,25.3,70.5,25.4,70.6,25.4L70.6,25.4z M75.5,20.6c0,0-0.6,0.6-0.7,0.8c-0.2,0.1-0.8,0.8-0.8,0.8c-0.1,0.1-0.2,0.3-0.2,0.4
	c-0.1,0.1-0.1,0.2-0.1,0.3c0,0.1,0.1,0.1,0.3,0.1C74,23,74,23,74.1,23c0,0,0,0,0.1,0l0.2,0.1c0,0,0.1,0,0.3,0c0.1,0,0.2,0,0.3,0
	c0.1,0,0.1,0,0.1,0.1c0.2,0.2,0.2,0.5,0.2,0.5c0,0-0.1,0.1,0,0.1c0,0,0.1-0.1,0.2,0c0.1,0,0.1,0.1,0.2,0.2c0.1,0.1,0.1,0.2,0.1,0.4
	c0,0.1,0,0.2-0.1,0.2c-0.1,0.1-0.2,0.1-0.2,0.1c-0.1,0-0.2,0-0.2,0c-0.1,0-0.3-0.1-0.4-0.1c0,0-0.1-0.1-0.2-0.2
	c-0.1-0.1-0.3-0.2-0.5-0.3C74,24,73.9,24,73.8,23.9c-0.4-0.2-1.1-0.6-1.2-0.7c-0.1-0.1-0.5-0.3-0.5-0.3c-0.2,0-0.3,0.3-0.3,0.4
	c0,0.1,0,0.2,0,0.3c0,0.1,0.1,0.2,0.1,0.2s0.6,0.4,0.7,0.4c0.1,0.1,0.8,0.3,0.8,0.3c0.2,0,0.4,0,0.5,0c0.3,0.1,0.5,0.2,0.5,0.2
	c0.1,0,0.6,0,0.6,0s0.2,0,0.2,0.1c0,0,0.1,0.2,0.1,0.2c0,0.1-0.2,0.2-0.3,0.2c-0.1,0-0.5-0.1-0.5-0.1s-0.2-0.1-0.2,0
	c0,0,0.5,0.6,0.5,0.6c0.1,0.1,0.1,0.2,0.4,0.2c0.3,0.1,0.3,0,0.4-0.1c0.1-0.1,0.2-0.6,0.2-0.7c0-0.2,0-0.3,0.1-0.3
	c0,0,0.2,0.2,0.2,0.2c0.1,0.2,0.3,0,0.4-0.1c0.1-0.3-0.1-0.4,0.2-0.5c0,0,0,0,0.1,0c0,0,0.1,0.1,0.3,0c0.2,0,1.1-0.1,1.2-0.1
	c0.1,0,0.3,0,0.4,0c0,0,0.2-0.2,0.2-0.4c0-0.3,0.1-0.2-0.1-0.4c-0.1-0.1-0.1-0.1-0.2-0.1c-0.1,0-0.2,0-0.3-0.1
	c-0.2-0.1-0.4-0.2-0.5-0.2c-0.4-0.1-0.3-0.3-0.1-0.5c0.1-0.1,0.2-0.1,0.1-0.3l-0.1-0.2c0,0,0,0,0,0c0,0,0,0,0,0c0,0,0.1-0.1,0.2-0.2
	c0.1,0,0.2-0.1,0.3-0.2c0.1-0.1,0.1-0.2,0.1-0.2s0-0.1,0-0.2c0-0.1,0-0.3-0.1-0.4c0,0,0-0.1,0-0.1c0,0,0-0.1,0-0.1
	c0-0.1-0.1-0.1-0.1,0c0,0,0,0.1,0,0.1c-0.1,0.1-0.2,0.2-0.3,0.2c0,0-0.2,0.1-0.2,0.1c-0.1,0-0.2,0-0.3,0c-0.1,0-0.2,0-0.3,0
	c-0.1,0-0.2-0.2-0.3-0.2c0,0-0.1-0.1-0.1-0.1c0,0,0,0,0,0.1l0,0.1c0,0.1,0,0.2,0,0.2c0,0,0,0.1,0,0.2c0,0.1-0.3,0.1-0.4,0.2
	c-0.2,0.1-0.6,0.1-0.6,0.1c0.1,0.1,0.3,0.1,0.4,0.1c0.2,0,0.2,0,0.3,0.1c0.1,0,0.3,0.1,0.4,0.1c0.1,0,0.2,0.1,0.2,0.1
	c0.1,0.2-0.1,0.3-0.1,0.3s-0.1,0.1-0.4,0.1c-0.2,0-0.6,0.2-0.7,0.2c-0.1,0-0.2-0.3-0.2-0.3s-0.1-0.2-0.1-0.2
	c-0.2,0.1-0.1,0.1-0.1,0.2c0,0.1,0,0.4,0,0.4c0,0.1-0.4,0.1-0.5,0.2c-0.1,0-0.3,0-0.5,0c0,0-0.1,0-0.1-0.1c0-0.1,0-0.1,0-0.2
	c0,0,0.1-0.1,0.1-0.2c0,0,0.1-0.1,0.1-0.2c0.1-0.2,0.5-0.8,0.6-0.9c0.1-0.1,0.3-0.3,0.4-0.4c0-0.1,0-0.1,0-0.1c0,0,0.1-0.2,0.1-0.2
	L75.5,20.6L75.5,20.6L75.5,20.6z M76.9,23l0.5,0.5c0.1,0.1,0,0.2,0,0.2c-0.1,0.1-0.3,0.2-0.4,0.3c-0.1,0-0.2,0.1-0.3,0.1
	c-0.1,0-0.2-0.1-0.3-0.1c0,0-0.3,0-0.4-0.1c0-0.1,0-0.2,0-0.3c0-0.1,0-0.3,0-0.4c0,0,0-0.1,0-0.1c0,0,0.5-0.1,0.8-0.1
	C76.9,23,76.9,23,76.9,23L76.9,23z M74,20.7c0,0.1,0,0.5,0,0.6c0,0.1,0.1,0.1,0,0.2c0,0-0.1,0.1-0.2,0.2c-0.1,0.1-0.3,0.3-0.3,0.3
	c0,0-0.1,0.1-0.2,0.2c-0.1,0.1-0.3,0.2-0.4,0.3c-0.1,0-0.1,0.1-0.1,0c0,0,0,0,0-0.1c0-0.1,0.1-0.2,0.1-0.3c0.1-0.1,0.1-0.2,0.2-0.3
	c0.1-0.1,0.2-0.3,0.3-0.4c0.1-0.1,0.1-0.2,0.1-0.3c0-0.1,0.2-0.2,0.3-0.4C73.9,20.7,73.9,20.7,74,20.7C74,20.6,74,20.7,74,20.7
	L74,20.7z"/>
<path class="st1" d="M14.6,26.5c0,0-0.1,0.3,0.1,0.5c0.1,0.1,0.2,0.2,0.3,0.4c0.1,0.2,0.1,0.3,0.2,0.6c0,0,0.1,0.1,0.1,0.1
	c0,0,0,0.1,0.1,0.2c0,0,0.1,0.1,0.1,0.1c0,0.1,0,0.1,0.1,0.2c0.1,0.1,0.2,0.1,0.3,0.1c0.1,0,0.2-0.1,0.5-0.1c0.1,0,0.4-0.2,0.3-0.3
	c-0.1-0.1-0.1-0.2-0.3-0.3c-0.2-0.1-0.6-0.3-0.9-0.6c-0.3-0.3-0.5-0.5-0.6-0.6C14.7,26.6,14.6,26.5,14.6,26.5L14.6,26.5z M17.8,24.4
	c0,0,0.1,0,0.2,0c0.1,0,0.1,0,0.2-0.1c0.1,0,0.1,0,0.2,0c0.4,0,0.7,0,1,0.1c0,0,0.2,0.1,0.3,0.3c0,0.2,0,0.2,0,0.3
	c0,0.1-0.3,0.4-0.3,0.4s-0.2-0.1-0.3-0.2c-0.1-0.1-0.6-0.4-0.7-0.4c0,0-0.2,0-0.3-0.1c-0.1-0.1-0.3-0.2-0.3-0.2L17.8,24.4L17.8,24.4
	L17.8,24.4z M13.7,24c0-0.1,0-0.2,0-0.3c0-0.1,0-0.2,0-0.3c0-0.1-0.1-0.1-0.1-0.2c-0.1-0.3-0.1-0.8-0.2-1.3c0-0.1-0.1-0.2-0.1-0.2
	c0-0.1,0-0.2-0.1-0.2c-0.1-0.3,0-0.5-0.1-0.7c-0.1-0.3-0.1-0.6-0.1-0.6c0-0.1,0-0.3-0.1-0.4c0-0.1,0-0.2,0-0.2c0,0,0.1,0,0.1,0
	s0.3,0,0.3,0c0.1,0,0.2,0.1,0.2,0.2c0,0,0.2,0.1,0.3,0.1c0.1,0,0.2-0.1,0.3-0.1c0,0,0.1-0.1,0.2,0c0.1,0.1,0,0.2,0,0.2
	c0,0.1,0,0.1-0.1,0.1c0,0-0.1,0.1-0.1,0.1c-0.1,0.2-0.4,0.7-0.4,1.2c0,0.1,0,0.3,0,0.4c0,0.1,0,0.2,0,0.4c0,0.2,0,0.3,0,0.5
	c0,0.1,0,0.1,0,0.2c0,0.1,0,0.1,0,0.2c0,0.1,0,0.2,0,0.2c0,0.1,0,0.2,0,0.3c0,0.1,0,0.2,0,0.3c0,0,0,0.1,0,0.1c0,0.1,0,0.1,0.1,0.1
	c0,0,0.1,0,0.1,0c0.1-0.1,0.2-0.3,0.3-0.8c0.1-0.4,0.1-0.8,0.1-0.8s0-0.4,0-0.5c0-0.1,0.1-0.1,0.1-0.1s0.1,0,0.1,0c0,0,0,0.1,0,0.1
	s0.2,0,0.3,0c0.1,0,0-0.2,0.1-0.2c0-0.1,0-0.5,0-0.7c0-0.1,0.1-0.2,0.1-0.4c0-0.1,0.1-0.2,0.2-0.3c0.1-0.2,0.1-0.4,0.2-0.5
	c0.1-0.1,0.1-0.3,0.3-0.3c0,0,0.1,0,0.2,0.1c0,0.1,0.1,0.2,0.1,0.2c0.1,0.1,0.3,0.4,0.4,0.6c0.1,0.1,1.4,1.4,1.8,1.6
	c0.3,0.2,0.5,0.4,0.6,0.5c0.1,0.1,0.8,0.6,0.8,0.6c0,0,1.3,0.9,1.4,1c0.1,0.1,0.5,0.4,0.5,0.4c0,0,0.3,0.2,0.4,0.3
	c0.1,0.1,0,0.2,0,0.2c-0.1,0.2-0.1,0.3-0.1,0.3c0,0-0.1,0.2-0.2,0.3c0,0-0.1,0.1-0.1,0.1c-0.1,0-0.1,0-0.2-0.1c0,0-0.1,0-0.2-0.1
	c-0.1,0-0.3-0.1-0.5-0.1c-0.4,0-0.6,0-0.7-0.1c0,0,0,0-0.1,0c-0.1,0-0.2-0.1-0.2-0.1c0,0,0.1-0.1,0.2-0.2c0.1-0.1,0.1-0.2,0.2-0.2
	c0,0,0.1,0,0.2,0c0.1,0,0.2,0,0.2-0.1c0,0,0.1-0.1,0.1-0.2c0-0.1-0.1-0.1-0.1-0.1c0,0-0.9-0.9-1.2-1c-0.2-0.1-0.7-0.5-1.1-0.8
	c-0.2-0.2-0.4-0.3-0.5-0.4c-0.2-0.2-0.7-0.6-0.8-0.7c-0.1-0.1-0.7-0.6-0.8-0.8c-0.1-0.2-0.2-0.2-0.2-0.3c-0.1-0.1-0.2-0.1-0.2-0.1
	c0,0.1-0.1,0.2-0.1,0.2c-0.1,0.1-0.2,0.1-0.3,0.1c-0.1,0.1-0.2,0.5-0.2,0.6c0,0.1,0.1,0.4,0.1,0.5c0,0.1-0.1,0.3-0.2,0.4
	c0,0-0.1,0-0.1,0c-0.1,0-0.2,0-0.3,0.1c-0.1,0.1-0.1,0.4,0,0.5c0,0.1,0.1,0.2,0.1,0.2s0.2-0.2,0.2-0.2c0.3-0.4,0.2-0.3,0.6-0.2
	c0,0,0.2-0.2,0.2-0.3c0-0.1,0.1,0,0.1,0s0.1,0.1,0.1,0.1c0,0.1,0.1,0.4,0.1,0.6c0,0.2,0.1,0.2,0.1,0.3c0.1,0,0.1,0.1,0.2,0
	c0.1-0.1,0.1-0.2,0.4-0.1c0,0,0.1,0.1,0.1,0.1c0,0.1,0,0.2,0,0.3c0,0.1,0.1,0.7,0.3,1c0,0,0,0.2,0.5,0.4c0.5,0.2,0.6,0.3,0.6,0.4
	c0,0.1,0.4,0.2,0.3,0.8c0,0,0,0.3-0.4,0.2c0,0-0.2,0-0.4-0.2c-0.1-0.1-0.2-0.2-0.2-0.2c0,0,0,0-0.1,0c0,0-0.1,0.1-0.1,0.2
	c0,0.1,0.1,0.2,0.2,0.3s0.1,0.3,0.1,0.4c0,0.1,0,0.1-0.1,0.1c0,0-0.1,0-0.1,0c-0.1,0-0.1,0-0.2,0c-0.1,0-0.1-0.1-0.1-0.2
	c0,0,0-0.2-0.1-0.4c0-0.2,0-0.3,0-0.4c0-0.1,0-0.2-0.1-0.2s-0.3-0.3-0.4-0.3c0,0-0.1,0-0.1,0c0,0.1-0.1,0.1,0,0.2
	c0.1,0.1,0.1,0.1,0.1,0.2c0,0-0.2,0.2-0.4,0.1c-0.1-0.1-0.2-0.2-0.3-0.4c0,0,0.1-0.2,0-0.5c0-0.2-0.1-0.4-0.1-0.4
	c-0.1-0.1-0.1-0.1-0.1-0.1s-0.1,0.2-0.1,0.3c0,0.1,0,0.4,0,0.5c0,0.1,0,0.2-0.1,0.2c0,0-0.1,0.1-0.3,0.1c-0.2,0-0.3,0.1-0.5,0.1
	c-0.2,0-0.1-0.1-0.1-0.2c0-0.1,0.2-0.3,0.2-0.5c0-0.1,0.1-0.4,0.1-0.6c0-0.2,0.1-0.6,0.1-0.7c0-0.1,0-0.2,0-0.2l-0.3-0.2
	c0,0-0.1,0-0.2,0.1c-0.1,0.1-0.2,0.1-0.3,0.6c0,0-0.1,0.2-0.2,0.4c-0.1,0.1-0.1,0.1-0.2,0.2c-0.1,0.1-0.1,0.2-0.2,0.2
	c-0.1,0.1-0.5,0.1-0.5,0.1c0,0,0.1-0.2,0.2-0.4c0.1-0.1,0.1-0.3,0.2-0.4c0,0,0-0.1,0-0.1c0,0,0-0.1,0-0.1c0,0,0,0,0-0.1
	C13.7,24.1,13.7,24.1,13.7,24L13.7,24z M11.9,24.7c0-0.1,0.1-0.2,0.2-0.4c0-0.1,0-0.2,0.1-0.3c0-0.1,0.1-0.3,0.1-0.4
	c0,0,0-0.1,0-0.2c0-0.1,0-0.2,0-0.2c0-0.1-0.1-0.1-0.2-0.1c0,0,0,0,0,0c0,0-0.1,0-0.1,0c-0.1-0.1-0.3-0.1-0.4-0.2c0-0.1,0-0.2,0-0.2
	c0,0,0-0.1,0.1-0.1c0.1,0,0.3,0,0.4,0c0.1,0,0.2-0.1,0.2-0.1c0.1,0,0.3-0.1,0.4,0c0,0,0.1,0.1,0.2,0.1c0,0,0,0,0.1,0
	c0,0,0.1,0,0.2,0c0.1,0,0.2,0,0.2,0.1c0,0.1-0.1,0.1-0.1,0.2c0,0,0,0.1,0.1,0.1c0,0.1,0.1,0.3,0.1,0.4c0,0.1-0.2,0.1-0.2,0.2
	c-0.1,0.1,0,0.3-0.1,0.4c0,0.2-0.1,0.5,0,0.6c0,0.1,0,0.2,0,0.2c0,0.1-0.1,0.1-0.2,0.1c-0.1,0-0.2,0-0.3,0c0,0-0.1,0-0.1,0
	c-0.1,0-0.3,0-0.3,0c0,0-0.1,0-0.2,0C11.8,24.9,11.8,24.8,11.9,24.7L11.9,24.7z"/>
<path class="st1" d="M59.4,14.2c0,0,0.2,0.1,0.2,0.2c0,0.1,0.2,0.5,0.2,0.5c0,0.1,0.2,0.1,0.3,0.3c0.1,0.1,0.1,0.3,0.1,0.4
	c0,0.1,0.1,0.2,0.1,0.3c0.1,0.2,0.1,0.8,0,0.9c-0.1,0-0.2,0-0.3,0c-0.1,0-0.4,0-0.5,0.1c-0.2,0-0.3,0.1-0.4,0.1
	C59,17,59,16.9,59,16.8c0-0.1,0.3-0.8,0.3-1.1C59.4,15,59.4,14.5,59.4,14.2L59.4,14.2z M54.8,11.5c0.1,0,0.2,0.2,0.3,0.2
	c0.1,0,1.2,0.2,1.7,0.2c0.5,0,0.7,0,0.8,0c0.1,0,0.4,0,0.6-0.2c0.2-0.2,0.5-0.8,0.6-1c0.1-0.2,0.2-0.6,0.3-0.7c0-0.1,0.1-0.4,0-0.6
	c0,0,0-0.2,0.1-0.3c0.1-0.1,0.3-0.1,0.3-0.2c0,0,0.1,0,0.1,0c0,0,0.1,0,0.1,0c0,0,0,0,0,0c0,0.1,0.1,0.3,0.2,0.5
	c0.1,0.2,0.4,0.7,0.4,0.8c0,0.1,0.1,0.3,0,0.4c0,0-0.1,0.1-0.2,0.2s0,0.3-0.1,0.3c-0.1,0-0.4,0.2-0.4,0.3c-0.1,0.1-0.1,0.2-0.1,0.3
	c0,0.1,0,0.2,0,0.2s0.1,0,0.2,0c0.1,0,0.3,0,0.4,0c0.1,0,0.2,0,0.4,0c0.1,0,0.2-0.1,0.2-0.1c0.1,0,0.1,0,0.2,0c0.1,0,0.1,0,0.2,0
	c0,0,0.1,0,0.1-0.1c0.1,0,0-0.1,0-0.1c0,0,0-0.1,0-0.1c0,0,0-0.1,0-0.1c0,0,0,0,0,0l0,0c0,0,0,0,0,0c0,0,0.2,0.1,0.2,0.2
	c0,0.1,0.2,0.3,0.2,0.4c0,0.1,0,0.2-0.1,0.2c0,0-0.2,0-0.4,0c-0.1,0-0.2,0-0.2,0c-0.1,0-0.2,0.1-0.3,0.1c-0.1,0.1-0.2,0.2-0.3,0.2
	c-0.2,0.1-0.6,0.1-0.7,0.1c-0.1,0-0.3,0.1-0.5,0.2c-0.1,0.1-0.2,0.2-0.3,0.3c-0.1,0-0.3,0.2-0.3,0.2c-0.1,0-0.2,0.3-0.4,0.5
	c-0.1,0.1-0.3,0.5-0.4,0.5c0,0.1-0.2,0.2-0.3,0.3c-0.1,0.1-0.3,0.3-0.6,0.3c0,0-0.3,0-0.4,0c-0.2,0-0.3,0.1-0.4,0.1
	c-0.1,0-0.4,0.1-0.9-0.1s-0.6-0.2-0.9-0.3c-0.3-0.1-0.7-0.2-0.8-0.2c0,0,0-0.1,0.1-0.1c0,0,0.1,0,0.3,0c0.2,0,0.6-0.1,1-0.1
	c0.4,0,0.8-0.1,1-0.2c0.2-0.1,0.9-0.2,1.1-0.4c0.2-0.1,0.6-0.5,0.6-0.6c0,0,0-0.2-0.1-0.1c-0.1,0-0.7,0.1-0.9,0.1
	c-0.2,0-0.3,0-0.6,0c-0.3,0.1-0.5,0.2-0.7,0c-0.2-0.1-0.2-0.3-0.4-0.6c-0.1-0.1-0.2-0.4-0.2-0.6c0-0.1,0-0.1,0.1-0.1
	C54.6,11.6,54.7,11.5,54.8,11.5L54.8,11.5z"/>
</svg>
